solid seavolt
facet normal 0.2754615672 -0.9238795211 0.2656455449
  outer loop
    vertex 24.98994637 -4.199999809 -29.91336632
    vertex 27.12768936 -2.969848394 -27.85180092
    vertex 16.65996361 -4.199999809 -21.27557755
  endloop
endfacet
facet normal -0.2754615672 -0.9238795211 -0.2656455449
  outer loop
    vertex 24.98994637 -4.199999809 -29.91336632
    vertex 14.52222061 -2.969848394 -23.33714294
    vertex 22.85220337 -2.969848394 -31.97493172
  endloop
endfacet
facet normal 0.694165403 0 -0.7198155272
  outer loop
    vertex 24.98994637 -4.199999809 -29.91336632
    vertex 23.05579758 -2.687005758 -31.77859306
    vertex 24.98994637 -3.799999952 -29.91336632
  endloop
endfacet
facet normal 0.6941650352 0 -0.7198158819
  outer loop
    vertex 24.98994637 -4.199999809 -29.91336632
    vertex 24.98994637 -3.799999952 -29.91336632
    vertex 26.92409515 -2.687005758 -28.04814148
  endloop
endfacet
facet normal 0.6941649961 -1.003969321e-06 -0.7198159196
  outer loop
    vertex 24.98994637 -4.199999809 -29.91336632
    vertex 22.85220337 -2.969848394 -31.97493172
    vertex 23.05579758 -2.687005758 -31.77859306
  endloop
endfacet
facet normal 0.6941660195 -2.428379659e-06 -0.7198149327
  outer loop
    vertex 24.98994637 -4.199999809 -29.91336632
    vertex 26.92409515 -2.687005758 -28.04814148
    vertex 27.12768936 -2.969848394 -27.85180092
  endloop
endfacet
facet normal -0.2754614867 -0.923879581 -0.2656454199
  outer loop
    vertex 0.8072553277 -4.665623665 -6
    vertex -2.073908806 -3.806583405 -6
    vertex 8.329979897 -5 -12.63778591
  endloop
endfacet
facet normal -0.2754615915 -0.9238794983 -0.265645599
  outer loop
    vertex -2.073908806 -3.806583405 -6
    vertex -2.544935465 -3.535533905 -6.454241753
    vertex 8.329979897 -5 -12.63778591
  endloop
endfacet
facet normal -0.2754617158 -0.923879436 -0.2656456868
  outer loop
    vertex 0.8072553277 -4.665623665 -6
    vertex 8.329979897 -5 -12.63778591
    vertex -2.587067002e-06 -5 -3.999997377
  endloop
endfacet
facet normal 0.2754616196 -0.9238794929 0.2656455888
  outer loop
    vertex 8.329979897 -5 -12.63778591
    vertex 10.87491226 -3.535533905 -10.18354225
    vertex 1.246244551e-06 -4.999999523 -3.999999523
  endloop
endfacet
facet normal 0.6941651419 0 -0.7198157791
  outer loop
    vertex 8.329979897 -5 -12.63778591
    vertex 5.785046577 -3.535533905 -15.09203053
    vertex 8.329979897 -4.599999905 -12.63778591
  endloop
endfacet
facet normal 0.6941651369 0 -0.7198157839
  outer loop
    vertex 8.329979897 -5 -12.63778591
    vertex 8.329979897 -4.599999905 -12.63778591
    vertex 10.87491226 -3.535533905 -10.18354225
  endloop
endfacet
facet normal 0.6941651503 3.863762574e-08 -0.719815771
  outer loop
    vertex 8.329979897 -4.599999905 -12.63778591
    vertex 5.785046577 -3.535533905 -15.09203053
    vertex 5.988641262 -3.252691269 -14.89569092
  endloop
endfacet
facet normal -0.275461538 -0.9238795445 -0.2656454939
  outer loop
    vertex 8.329979897 -5 -12.63778591
    vertex -2.544935465 -3.535533905 -6.454241753
    vertex 5.785046577 -3.535533905 -15.09203053
  endloop
endfacet
facet normal -0.2754615283 -0.92387956 -0.2656454498
  outer loop
    vertex 8.329979897 -4.599999905 -12.63778591
    vertex 5.988641262 -3.252691269 -14.89569092
    vertex 16.65996361 -4.599999905 -21.27557755
  endloop
endfacet
facet normal 0.6941649371 9.219858067e-07 -0.7198159765
  outer loop
    vertex 8.329979897 -4.599999905 -12.63778591
    vertex 10.67131805 -3.252691269 -10.37988091
    vertex 10.87491226 -3.535533905 -10.18354225
  endloop
endfacet
facet normal -0.3826841497 -0.9238792354 -4.950141185e-07
  outer loop
    vertex -9.184850468e-16 -5 -6
    vertex -2.587067002e-06 -5 -3.999997377
    vertex -3.535533905 -3.535533905 0
  endloop
endfacet
facet normal -0.3826834327 -0.9238795324 2.475070823e-07
  outer loop
    vertex -2.587067002e-06 -5 -3.999997377
    vertex -9.184850468e-16 -5 0
    vertex -3.535533905 -3.535533905 0
  endloop
endfacet
facet normal 0.3826836572 -0.9238794394 4.950134814e-07
  outer loop
    vertex -9.184850468e-16 -5 -6
    vertex 0.8072553277 -4.665623665 -6
    vertex -2.587067002e-06 -5 -3.999997377
  endloop
endfacet
facet normal 0.1234415866 -0.9923518402 -7.983796616e-08
  outer loop
    vertex 1.246244551e-06 -4.999999523 -3.999999523
    vertex -9.184850468e-16 -5 0
    vertex -2.587067002e-06 -5 -3.999997377
  endloop
endfacet
facet normal 0.2530590424 -0.9361650234 0.2440413287
  outer loop
    vertex 8.329979897 -5 -12.63778591
    vertex 1.246244551e-06 -4.999999523 -3.999999523
    vertex -2.587067002e-06 -5 -3.999997377
  endloop
endfacet
facet normal 0 0 -1
  outer loop
    vertex -9.184850468e-16 -5 -6
    vertex -2.073908806 -3.806583405 -6
    vertex 0.8072553277 -4.665623665 -6
  endloop
endfacet
facet normal 0.3826834383 -0.9238795301 9.094266172e-09
  outer loop
    vertex 1.246244551e-06 -4.999999523 -3.999999523
    vertex 3.535533905 -3.535533905 -2.572960854
    vertex -9.184850468e-16 -5 0
  endloop
endfacet
facet normal 0 0 -1
  outer loop
    vertex -9.184850468e-16 -5 -6
    vertex -3.535533905 -3.535533905 -6
    vertex -2.073908806 -3.806583405 -6
  endloop
endfacet
facet normal -0.3826834327 -0.9238795324 -0
  outer loop
    vertex -9.184850468e-16 -5 -6
    vertex -3.535533905 -3.535533905 0
    vertex -3.535533905 -3.535533905 -6
  endloop
endfacet
facet normal 0 -0 1
  outer loop
    vertex -9.184850468e-16 -5 0
    vertex 3.535533905 -3.535533905 0
    vertex 1.725637436 -3.875845194 0
  endloop
endfacet
facet normal 0.3826834327 -0.9238795324 0
  outer loop
    vertex -9.184850468e-16 -5 0
    vertex 3.535533905 -3.535533905 -2.572960854
    vertex 3.535533905 -3.535533905 0
  endloop
endfacet
facet normal 0.2754615765 -0.92387953 0.2656455042
  outer loop
    vertex 1.246244551e-06 -4.999999523 -3.999999523
    vertex 10.87491226 -3.535533905 -10.18354225
    vertex 3.535533905 -3.535533905 -2.572960854
  endloop
endfacet
facet normal 0 0 -1
  outer loop
    vertex -2.073908806 -3.806583405 -6
    vertex -3.535533905 -3.535533905 -6
    vertex -2.073908806 -2.881162643 -6
  endloop
endfacet
facet normal -0.6941652447 0 0.7198156799
  outer loop
    vertex -2.073908806 -3.806583405 -6
    vertex -2.073908806 -2.881162643 -6
    vertex -2.544935465 -3.535533905 -6.454241753
  endloop
endfacet
facet normal 0 0 1
  outer loop
    vertex -9.184850468e-16 -5 0
    vertex -3.875845194 -1.725637436 0
    vertex -3.535533905 -3.535533905 0
  endloop
endfacet
facet normal 0 -0 1
  outer loop
    vertex -9.184850468e-16 -5 0
    vertex 1.725637436 -3.875845194 0
    vertex -3.875845194 -1.725637436 0
  endloop
endfacet
facet normal -0.3583679544 -0.9335804246 0
  outer loop
    vertex 1.725637436 -3.875845194 0
    vertex 1.725637436 -3.875845194 12
    vertex -3.875845194 -1.725637436 12
  endloop
endfacet
facet normal 0.6650229752 -0.3826837283 0.6413248838
  outer loop
    vertex 3.535533905 -3.535533905 -2.572960854
    vertex 10.87491226 -3.535533905 -10.18354225
    vertex 3.718711615 -3.093303919 -2.499025106
  endloop
endfacet
facet normal 0.9238794944 -0.3826835244 0
  outer loop
    vertex 3.535533905 -3.535533905 -2.572960854
    vertex 3.718711615 -3.093303919 -2.499025106
    vertex 3.535533905 -3.535533905 0
  endloop
endfacet
facet normal 0.2754615513 -0.9238795468 0.265645472
  outer loop
    vertex 8.329979897 -4.599999905 -12.63778591
    vertex 16.65996361 -4.599999905 -21.27557755
    vertex 19.00130272 -3.252691269 -19.01767349
  endloop
endfacet
facet normal 0.6941652955 0 -0.719815631
  outer loop
    vertex 14.52222061 -2.969848394 -23.33714294
    vertex 16.65996361 -4.199999809 -21.27557755
    vertex 16.65996361 -4.599999905 -21.27557755
  endloop
endfacet
facet normal 0.6941649745 0 -0.7198159404
  outer loop
    vertex 16.65996361 -4.599999905 -21.27557755
    vertex 16.65996361 -4.199999809 -21.27557755
    vertex 18.79770851 -2.969848394 -19.21401215
  endloop
endfacet
facet normal -0.2754615672 -0.9238795211 -0.2656455449
  outer loop
    vertex 24.98994637 -4.199999809 -29.91336632
    vertex 16.65996361 -4.199999809 -21.27557755
    vertex 14.52222061 -2.969848394 -23.33714294
  endloop
endfacet
facet normal -0.2754615123 -0.9238795733 -0.2656454203
  outer loop
    vertex 14.31862545 -3.252691269 -23.53348351
    vertex 16.65996361 -4.599999905 -21.27557755
    vertex 5.988641262 -3.252691269 -14.89569092
  endloop
endfacet
facet normal 0.6941655744 7.061111396e-07 -0.7198153619
  outer loop
    vertex 14.31862545 -3.252691269 -23.53348351
    vertex 14.52222061 -2.969848394 -23.33714294
    vertex 16.65996361 -4.599999905 -21.27557755
  endloop
endfacet
facet normal 0.6941647261 6.288388144e-07 -0.71981618
  outer loop
    vertex 16.65996361 -4.599999905 -21.27557755
    vertex 18.79770851 -2.969848394 -19.21401215
    vertex 19.00130272 -3.252691269 -19.01767349
  endloop
endfacet
facet normal 0.2754615526 -0.9238795457 0.2656454743
  outer loop
    vertex 8.329979897 -4.599999905 -12.63778591
    vertex 19.00130272 -3.252691269 -19.01767349
    vertex 10.67131805 -3.252691269 -10.37988091
  endloop
endfacet
facet normal 0.2754614889 -0.9238795836 0.2656454086
  outer loop
    vertex 16.65996361 -4.199999809 -21.27557755
    vertex 27.12768936 -2.969848394 -27.85180092
    vertex 18.79770851 -2.969848394 -19.21401215
  endloop
endfacet
facet normal -0.6650229159 -0.382683726 -0.6413249466
  outer loop
    vertex 14.52222061 -2.969848394 -23.33714294
    vertex 13.63673782 0 -24.19107246
    vertex 22.85220337 -2.969848394 -31.97493172
  endloop
endfacet
facet normal 0.6941646404 -5.098524999e-07 -0.7198162626
  outer loop
    vertex 22.85220337 -2.969848394 -31.97493172
    vertex 21.96672058 0 -32.82886124
    vertex 23.05579758 -2.687005758 -31.77859306
  endloop
endfacet
facet normal -0.6650229159 -0.382683726 -0.6413249466
  outer loop
    vertex 22.85220337 -2.969848394 -31.97493172
    vertex 13.63673782 0 -24.19107246
    vertex 21.96672058 0 -32.82886124
  endloop
endfacet
facet normal 0.6941683969 2.428620985e-06 -0.7198126401
  outer loop
    vertex 23.05579758 -2.687005758 -31.77859306
    vertex 21.96672058 0 -32.82886124
    vertex 22.2546463 0 -32.55119324
  endloop
endfacet
facet normal -0.6650230203 -0.3826834684 -0.6413249921
  outer loop
    vertex -2.544935465 -3.535533905 -6.454241753
    vertex -3.599081278 0 -7.470823288
    vertex 5.785046577 -3.535533905 -15.09203053
  endloop
endfacet
facet normal -0.6650230717 -0.3826834938 -0.6413249237
  outer loop
    vertex 14.31862545 -3.252691269 -23.53348351
    vertex 5.988641262 -3.252691269 -14.89569092
    vertex 5.018826962 0 -15.83094597
  endloop
endfacet
facet normal 0.6941651771 1.384783095e-09 -0.7198157451
  outer loop
    vertex 5.785046577 -3.535533905 -15.09203053
    vertex 5.018826962 0 -15.83094597
    vertex 5.988641262 -3.252691269 -14.89569092
  endloop
endfacet
facet normal 0.6650230616 -0.3826834684 0.6413249493
  outer loop
    vertex 3.718711615 -3.093303919 -2.499025106
    vertex 10.87491226 -3.535533905 -10.18354225
    vertex 11.92905807 6.123233998e-16 -9.166960716
  endloop
endfacet
facet normal -0.9238795324 -0.3826834327 0
  outer loop
    vertex -3.535533905 -3.535533905 -6
    vertex -3.535533905 -3.535533905 0
    vertex -5 6.123233998e-16 0
  endloop
endfacet
facet normal -0.6941652365 -1.143374303e-08 0.7198156879
  outer loop
    vertex -2.544935465 -3.535533905 -6.454241753
    vertex -2.073908806 -2.881162643 -6
    vertex -3.599081278 0 -7.470823288
  endloop
endfacet
facet normal 0 -0 -1
  outer loop
    vertex -3.535533905 -3.535533905 -6
    vertex -2.073908567 2.539805528e-16 -6
    vertex -2.073908806 -2.881162643 -6
  endloop
endfacet
facet normal -0.3583679544 -0.9335804246 -0
  outer loop
    vertex 1.725637436 -3.875845194 0
    vertex -3.875845194 -1.725637436 12
    vertex -3.875845194 -1.725637436 0
  endloop
endfacet
facet normal 0.9335804246 -0.3583679544 0
  outer loop
    vertex 1.725637436 -3.875845194 0
    vertex 3.875845194 1.725637436 0
    vertex 1.725637436 -3.875845194 12
  endloop
endfacet
facet normal 0 0 1
  outer loop
    vertex -3.535533905 -3.535533905 0
    vertex -3.875845194 -1.725637436 0
    vertex -5 6.123233998e-16 0
  endloop
endfacet
facet normal 0 -0 1
  outer loop
    vertex 1.725637436 -3.875845194 12
    vertex 3.875845194 1.725637436 12
    vertex -3.875845194 -1.725637436 12
  endloop
endfacet
facet normal 0 0 1
  outer loop
    vertex 1.725637436 -3.875845194 0
    vertex 3.535533905 -3.535533905 0
    vertex 5 0 0
  endloop
endfacet
facet normal 0.9238795324 -0.3826834327 1.902136168e-08
  outer loop
    vertex 3.535533905 -3.535533905 0
    vertex 3.718711615 -3.093303919 -2.499025106
    vertex 5 0 0
  endloop
endfacet
facet normal -0.6650230203 -0.3826834684 -0.6413249921
  outer loop
    vertex 5.785046577 -3.535533905 -15.09203053
    vertex -3.599081278 0 -7.470823288
    vertex 4.730900764 0 -16.10861206
  endloop
endfacet
facet normal 0.6941653306 6.557824464e-08 -0.7198155971
  outer loop
    vertex 5.785046577 -3.535533905 -15.09203053
    vertex 4.730900764 0 -16.10861206
    vertex 5.018826962 0 -15.83094597
  endloop
endfacet
facet normal 0 0 -1
  outer loop
    vertex -3.535533905 -3.535533905 -6
    vertex -5 6.123233998e-16 -6
    vertex -2.073908567 2.539805528e-16 -6
  endloop
endfacet
facet normal -0.9238795324 -0.3826834327 -0
  outer loop
    vertex -3.535533905 -3.535533905 -6
    vertex -5 6.123233998e-16 0
    vertex -5 6.123233998e-16 -6
  endloop
endfacet
facet normal -0.6941651691 5.744273883e-08 0.7198157529
  outer loop
    vertex -2.073908806 -2.881162643 -6
    vertex -2.073908567 2.539805528e-16 -6
    vertex -3.599081278 0 -7.470823288
  endloop
endfacet
facet normal 0.9238795378 -0.3826834195 0
  outer loop
    vertex 3.718711615 -3.093303919 -2.499025106
    vertex 5 0 -1.98186183
    vertex 5 0 0
  endloop
endfacet
facet normal 0 -0 1
  outer loop
    vertex 1.725637436 -3.875845194 0
    vertex 5 0 0
    vertex 3.875845194 1.725637436 0
  endloop
endfacet
facet normal 0.6650230656 -0.3826834001 0.6413249859
  outer loop
    vertex 3.718711615 -3.093303919 -2.499025106
    vertex 11.92905807 6.123233998e-16 -9.166960716
    vertex 5 0 -1.98186183
  endloop
endfacet
facet normal 0.9335804246 -0.3583679544 0
  outer loop
    vertex 1.725637436 -3.875845194 12
    vertex 3.875845194 1.725637436 0
    vertex 3.875845194 1.725637436 12
  endloop
endfacet
facet normal 0.6941659203 2.255659675e-07 -0.7198150283
  outer loop
    vertex 14.31862545 -3.252691269 -23.53348351
    vertex 13.3488121 0 -24.46873856
    vertex 14.52222061 -2.969848394 -23.33714294
  endloop
endfacet
facet normal 0.6941645336 3.613951494e-07 -0.7198163657
  outer loop
    vertex 10.67131805 -3.252691269 -10.37988091
    vertex 11.6411314 5.633375257e-16 -9.444626808
    vertex 10.87491226 -3.535533905 -10.18354225
  endloop
endfacet
facet normal 0.6650230533 -0.3826834938 0.6413249427
  outer loop
    vertex 10.67131805 -3.252691269 -10.37988091
    vertex 19.00130272 -3.252691269 -19.01767349
    vertex 19.97111702 5.633375257e-16 -18.08241844
  endloop
endfacet
facet normal 0.6941645374 3.667132044e-07 -0.719816362
  outer loop
    vertex 19.00130272 -3.252691269 -19.01767349
    vertex 18.79770851 -2.969848394 -19.21401215
    vertex 19.97111702 5.633375257e-16 -18.08241844
  endloop
endfacet
facet normal 0.6650230941 -0.3826833745 0.6413249716
  outer loop
    vertex 18.79770851 -2.969848394 -19.21401215
    vertex 27.12768936 -2.969848394 -27.85180092
    vertex 28.01317215 5.143516516e-16 -26.99787331
  endloop
endfacet
facet normal -0.6650230846 -0.3826833274 -0.6413250096
  outer loop
    vertex 14.31862545 -3.252691269 -23.53348351
    vertex 5.018826962 0 -15.83094597
    vertex 13.3488121 0 -24.46873856
  endloop
endfacet
facet normal 0.6941659262 2.300375759e-07 -0.7198150227
  outer loop
    vertex 14.52222061 -2.969848394 -23.33714294
    vertex 13.3488121 0 -24.46873856
    vertex 13.63673782 0 -24.19107246
  endloop
endfacet
facet normal 0.6650230787 -0.3826831669 0.6413251114
  outer loop
    vertex 10.67131805 -3.252691269 -10.37988091
    vertex 19.97111702 5.633375257e-16 -18.08241844
    vertex 11.6411314 5.633375257e-16 -9.444626808
  endloop
endfacet
facet normal 0.6941647349 2.771872311e-07 -0.7198161715
  outer loop
    vertex 10.87491226 -3.535533905 -10.18354225
    vertex 11.6411314 5.633375257e-16 -9.444626808
    vertex 11.92905807 6.123233998e-16 -9.166960716
  endloop
endfacet
facet normal 0.6650231295 -0.3826830099 0.6413251525
  outer loop
    vertex 18.79770851 -2.969848394 -19.21401215
    vertex 28.01317215 5.143516516e-16 -26.99787331
    vertex 19.68318939 5.143516516e-16 -18.36008453
  endloop
endfacet
facet normal 0.6941635436 1.124548409e-06 -0.7198173204
  outer loop
    vertex 18.79770851 -2.969848394 -19.21401215
    vertex 19.68318939 5.143516516e-16 -18.36008453
    vertex 19.97111702 5.633375257e-16 -18.08241844
  endloop
endfacet
facet normal -0.2754615137 -0.9238795591 -0.2656454682
  outer loop
    vertex 24.98994637 -3.799999952 -29.91336632
    vertex 23.05579758 -2.687005758 -31.77859306
    vertex 90.73386383 -3.799999952 -98.08663177
  endloop
endfacet
facet normal 0.275461622 -0.9238794924 0.2656455878
  outer loop
    vertex 24.98994637 -3.799999952 -29.91336632
    vertex 92.66801453 -2.687005758 -96.22140503
    vertex 26.92409515 -2.687005758 -28.04814148
  endloop
endfacet
facet normal 0.6941668758 -1.238763367e-06 -0.7198141069
  outer loop
    vertex 27.12768936 -2.969848394 -27.85180092
    vertex 26.92409515 -2.687005758 -28.04814148
    vertex 28.01317215 5.143516516e-16 -26.99787331
  endloop
endfacet
facet normal 0.6941659262 -4.959465233e-07 -0.7198150227
  outer loop
    vertex 26.92409515 -2.687005758 -28.04814148
    vertex 27.72524643 4.653657775e-16 -27.2755394
    vertex 28.01317215 5.143516516e-16 -26.99787331
  endloop
endfacet
facet normal -0.665023112 -0.382683201 -0.6413250565
  outer loop
    vertex 23.05579758 -2.687005758 -31.77859306
    vertex 22.2546463 0 -32.55119324
    vertex 88.79971313 -2.687005758 -99.95185852
  endloop
endfacet
facet normal 0.6650230051 -0.3826835896 0.6413249355
  outer loop
    vertex 26.92409515 -2.687005758 -28.04814148
    vertex 93.46916199 4.653657775e-16 -95.44880676
    vertex 27.72524643 4.653657775e-16 -27.2755394
  endloop
endfacet
facet normal -0.6650229159 0.382683726 -0.6413249466
  outer loop
    vertex 13.63673782 0 -24.19107246
    vertex 14.52222061 2.969848394 -23.33714294
    vertex 21.96672058 0 -32.82886124
  endloop
endfacet
facet normal 0.6941683969 -2.428620985e-06 -0.7198126401
  outer loop
    vertex 21.96672058 0 -32.82886124
    vertex 23.05579758 2.687005758 -31.77859306
    vertex 22.2546463 0 -32.55119324
  endloop
endfacet
facet normal -0.6650229159 0.382683726 -0.6413249466
  outer loop
    vertex 21.96672058 0 -32.82886124
    vertex 14.52222061 2.969848394 -23.33714294
    vertex 22.85220337 2.969848394 -31.97493172
  endloop
endfacet
facet normal 0.6941646404 5.098524999e-07 -0.7198162626
  outer loop
    vertex 21.96672058 0 -32.82886124
    vertex 22.85220337 2.969848394 -31.97493172
    vertex 23.05579758 2.687005758 -31.77859306
  endloop
endfacet
facet normal -0.6650230203 0.3826834684 -0.6413249921
  outer loop
    vertex -3.599081278 0 -7.470823288
    vertex -2.544935465 3.535533905 -6.454241753
    vertex 4.730900764 0 -16.10861206
  endloop
endfacet
facet normal -0.665023035 0.3826834938 -0.6413249617
  outer loop
    vertex 13.3488121 0 -24.46873856
    vertex 5.018826962 0 -15.83094597
    vertex 5.988641262 3.252691269 -14.89569092
  endloop
endfacet
facet normal 0.6941653306 -6.557824464e-08 -0.7198155971
  outer loop
    vertex 4.730900764 0 -16.10861206
    vertex 5.785046577 3.535533905 -15.09203053
    vertex 5.018826962 0 -15.83094597
  endloop
endfacet
facet normal -0.9335804246 0.3583679544 0
  outer loop
    vertex -3.875845194 -1.725637436 0
    vertex -3.875845194 -1.725637436 12
    vertex -1.725637436 3.875845194 12
  endloop
endfacet
facet normal 0 -0 1
  outer loop
    vertex -3.875845194 -1.725637436 0
    vertex -1.725637436 3.875845194 0
    vertex -5 6.123233998e-16 0
  endloop
endfacet
facet normal 0 0 -1
  outer loop
    vertex -5 6.123233998e-16 -6
    vertex -2.073908806 2.881162643 -6
    vertex -2.073908567 2.539805528e-16 -6
  endloop
endfacet
facet normal -0.6941651691 -5.744273883e-08 0.7198157529
  outer loop
    vertex -3.599081278 0 -7.470823288
    vertex -2.073908567 2.539805528e-16 -6
    vertex -2.073908806 2.881162643 -6
  endloop
endfacet
facet normal -0.9238795324 0.3826834327 0
  outer loop
    vertex -5 6.123233998e-16 -6
    vertex -5 6.123233998e-16 0
    vertex -3.535533905 3.535533905 0
  endloop
endfacet
facet normal 0.9238795597 0.3826833666 0
  outer loop
    vertex 5 0 -1.98186183
    vertex 4.76527071 0.5666867495 -2.076605082
    vertex 5 0 0
  endloop
endfacet
facet normal 0.665023068 0.3826833919 0.6413249883
  outer loop
    vertex 5 0 -1.98186183
    vertex 11.92905807 6.123233998e-16 -9.166960716
    vertex 4.76527071 0.5666867495 -2.076605082
  endloop
endfacet
facet normal -0.6650230203 0.3826834684 -0.6413249921
  outer loop
    vertex 4.730900764 0 -16.10861206
    vertex -2.544935465 3.535533905 -6.454241753
    vertex 5.785046577 3.535533905 -15.09203053
  endloop
endfacet
facet normal 0.6650230487 0.3826834684 0.6413249627
  outer loop
    vertex 4.76527071 0.5666867495 -2.076605082
    vertex 11.92905807 6.123233998e-16 -9.166960716
    vertex 10.87491226 3.535533905 -10.18354225
  endloop
endfacet
facet normal 0.6941651771 -1.384783095e-09 -0.7198157451
  outer loop
    vertex 5.018826962 0 -15.83094597
    vertex 5.785046577 3.535533905 -15.09203053
    vertex 5.988641262 3.252691269 -14.89569092
  endloop
endfacet
facet normal 0 -0 1
  outer loop
    vertex -3.875845194 -1.725637436 12
    vertex 3.875845194 1.725637436 12
    vertex -1.725637436 3.875845194 12
  endloop
endfacet
facet normal 0 0 -1
  outer loop
    vertex -5 6.123233998e-16 -6
    vertex -3.535533905 3.535533905 -6
    vertex -2.073908806 2.881162643 -6
  endloop
endfacet
facet normal -0.6941652365 1.143374303e-08 0.7198156879
  outer loop
    vertex -3.599081278 0 -7.470823288
    vertex -2.073908806 2.881162643 -6
    vertex -2.544935465 3.535533905 -6.454241753
  endloop
endfacet
facet normal -0.9238795324 0.3826834327 0
  outer loop
    vertex -5 6.123233998e-16 -6
    vertex -3.535533905 3.535533905 0
    vertex -3.535533905 3.535533905 -6
  endloop
endfacet
facet normal 0 -0 1
  outer loop
    vertex -5 6.123233998e-16 0
    vertex -1.725637436 3.875845194 0
    vertex -3.535533905 3.535533905 0
  endloop
endfacet
facet normal -0.9335804246 0.3583679544 0
  outer loop
    vertex -3.875845194 -1.725637436 0
    vertex -1.725637436 3.875845194 12
    vertex -1.725637436 3.875845194 0
  endloop
endfacet
facet normal 0.3583679544 0.9335804246 0
  outer loop
    vertex 3.875845194 1.725637436 0
    vertex -1.725637436 3.875845194 0
    vertex 3.875845194 1.725637436 12
  endloop
endfacet
facet normal 0.9238795324 0.3826834327 2.110556369e-08
  outer loop
    vertex 5 0 0
    vertex 4.76527071 0.5666867495 -2.076605082
    vertex 3.535533905 3.535533905 0
  endloop
endfacet
facet normal 0 0 1
  outer loop
    vertex 5 0 0
    vertex 3.535533905 3.535533905 0
    vertex 3.875845194 1.725637436 0
  endloop
endfacet
facet normal 0.6941659262 -2.300375759e-07 -0.7198150227
  outer loop
    vertex 13.3488121 0 -24.46873856
    vertex 14.52222061 2.969848394 -23.33714294
    vertex 13.63673782 0 -24.19107246
  endloop
endfacet
facet normal 0.6941647349 -2.771872311e-07 -0.7198161715
  outer loop
    vertex 11.6411314 5.633375257e-16 -9.444626808
    vertex 10.87491226 3.535533905 -10.18354225
    vertex 11.92905807 6.123233998e-16 -9.166960716
  endloop
endfacet
facet normal 0.6650229813 0.3826834938 0.6413250174
  outer loop
    vertex 11.6411314 5.633375257e-16 -9.444626808
    vertex 19.97111702 5.633375257e-16 -18.08241844
    vertex 19.00130272 3.252691269 -19.01767349
  endloop
endfacet
facet normal 0.6941635436 -1.124548409e-06 -0.7198173204
  outer loop
    vertex 19.68318939 5.143516516e-16 -18.36008453
    vertex 18.79770851 2.969848394 -19.21401215
    vertex 19.97111702 5.633375257e-16 -18.08241844
  endloop
endfacet
facet normal 0.6650230208 0.3826833745 0.6413250477
  outer loop
    vertex 19.68318939 5.143516516e-16 -18.36008453
    vertex 28.01317215 5.143516516e-16 -26.99787331
    vertex 27.12768936 2.969848394 -27.85180092
  endloop
endfacet
facet normal 0.6941659203 -2.255659675e-07 -0.7198150283
  outer loop
    vertex 13.3488121 0 -24.46873856
    vertex 14.31862545 3.252691269 -23.53348351
    vertex 14.52222061 2.969848394 -23.33714294
  endloop
endfacet
facet normal -0.6650231213 0.3826833274 -0.6413249715
  outer loop
    vertex 13.3488121 0 -24.46873856
    vertex 5.988641262 3.252691269 -14.89569092
    vertex 14.31862545 3.252691269 -23.53348351
  endloop
endfacet
facet normal 0.6650231508 0.3826831669 0.6413250367
  outer loop
    vertex 11.6411314 5.633375257e-16 -9.444626808
    vertex 19.00130272 3.252691269 -19.01767349
    vertex 10.67131805 3.252691269 -10.37988091
  endloop
endfacet
facet normal 0.6941645336 -3.613951494e-07 -0.7198163657
  outer loop
    vertex 11.6411314 5.633375257e-16 -9.444626808
    vertex 10.67131805 3.252691269 -10.37988091
    vertex 10.87491226 3.535533905 -10.18354225
  endloop
endfacet
facet normal 0.6650232028 0.3826830099 0.6413250764
  outer loop
    vertex 19.68318939 5.143516516e-16 -18.36008453
    vertex 27.12768936 2.969848394 -27.85180092
    vertex 18.79770851 2.969848394 -19.21401215
  endloop
endfacet
facet normal 0.6941645374 -3.667132044e-07 -0.719816362
  outer loop
    vertex 19.97111702 5.633375257e-16 -18.08241844
    vertex 18.79770851 2.969848394 -19.21401215
    vertex 19.00130272 3.252691269 -19.01767349
  endloop
endfacet
facet normal 0.6941649961 1.003969321e-06 -0.7198159196
  outer loop
    vertex 23.05579758 2.687005758 -31.77859306
    vertex 22.85220337 2.969848394 -31.97493172
    vertex 24.98994637 4.199999809 -29.91336632
  endloop
endfacet
facet normal 0.6941660195 2.428379659e-06 -0.7198149327
  outer loop
    vertex 24.98994637 4.199999809 -29.91336632
    vertex 27.12768936 2.969848394 -27.85180092
    vertex 26.92409515 2.687005758 -28.04814148
  endloop
endfacet
facet normal 0.694165403 0 -0.7198155272
  outer loop
    vertex 23.05579758 2.687005758 -31.77859306
    vertex 24.98994637 4.199999809 -29.91336632
    vertex 24.98994637 3.799999952 -29.91336632
  endloop
endfacet
facet normal 0.6941650352 0 -0.7198158819
  outer loop
    vertex 24.98994637 3.799999952 -29.91336632
    vertex 24.98994637 4.199999809 -29.91336632
    vertex 26.92409515 2.687005758 -28.04814148
  endloop
endfacet
facet normal -0.2754615672 0.9238795211 -0.2656455449
  outer loop
    vertex 22.85220337 2.969848394 -31.97493172
    vertex 16.65996361 4.199999809 -21.27557755
    vertex 24.98994637 4.199999809 -29.91336632
  endloop
endfacet
facet normal -0.2754616182 0.9238794983 -0.2656455713
  outer loop
    vertex -2.544935465 3.535533905 -6.454241753
    vertex -2.073908806 3.806583405 -6
    vertex 5.785046577 3.535533905 -15.09203053
  endloop
endfacet
facet normal -0.2754615354 0.92387956 -0.2656454425
  outer loop
    vertex 14.31862545 3.252691269 -23.53348351
    vertex 5.988641262 3.252691269 -14.89569092
    vertex 8.329979897 4.599999905 -12.63778591
  endloop
endfacet
facet normal 0 0 -1
  outer loop
    vertex -2.073908806 2.881162643 -6
    vertex -3.535533905 3.535533905 -6
    vertex -2.073908806 3.806583405 -6
  endloop
endfacet
facet normal -0.6941652447 0 0.7198156799
  outer loop
    vertex -2.073908806 2.881162643 -6
    vertex -2.073908806 3.806583405 -6
    vertex -2.544935465 3.535533905 -6.454241753
  endloop
endfacet
facet normal 0 0 1
  outer loop
    vertex 3.875845194 1.725637436 0
    vertex 3.535533905 3.535533905 0
    vertex 3.061616999e-16 5 0
  endloop
endfacet
facet normal 0 0 1
  outer loop
    vertex 3.875845194 1.725637436 0
    vertex 3.061616999e-16 5 0
    vertex -1.725637436 3.875845194 0
  endloop
endfacet
facet normal 0.3583679544 0.9335804246 -0
  outer loop
    vertex 3.875845194 1.725637436 12
    vertex -1.725637436 3.875845194 0
    vertex -1.725637436 3.875845194 12
  endloop
endfacet
facet normal 0.6650230576 0.3826834518 0.6413249633
  outer loop
    vertex 4.76527071 0.5666867495 -2.076605082
    vertex 10.87491226 3.535533905 -10.18354225
    vertex 3.535533905 3.535533905 -2.572960854
  endloop
endfacet
facet normal 0.9238795272 0.3826834453 -0
  outer loop
    vertex 4.76527071 0.5666867495 -2.076605082
    vertex 3.535533905 3.535533905 -2.572960854
    vertex 3.535533905 3.535533905 0
  endloop
endfacet
facet normal 0.2754617303 0.9238794415 0.2656456525
  outer loop
    vertex 3.535533905 3.535533905 -2.572960854
    vertex 10.87491226 3.535533905 -10.18354225
    vertex 3.159772873 3.691179276 -2.72462821
  endloop
endfacet
facet normal 0.3826835473 0.9238794849 0
  outer loop
    vertex 3.535533905 3.535533905 -2.572960854
    vertex 3.159772873 3.691179276 -2.72462821
    vertex 3.535533905 3.535533905 0
  endloop
endfacet
facet normal -0.2754616203 0.9238794971 -0.2656455731
  outer loop
    vertex 5.785046577 3.535533905 -15.09203053
    vertex -2.073908806 3.806583405 -6
    vertex 0.8072552681 4.665624142 -6
  endloop
endfacet
facet normal -0.2754606919 0.9238799055 -0.2656451155
  outer loop
    vertex 5.785046577 3.535533905 -15.09203053
    vertex 0.8072552681 4.665624142 -6
    vertex 3.061616999e-16 5 -4
  endloop
endfacet
facet normal 0.6941651503 -3.863762574e-08 -0.719815771
  outer loop
    vertex 5.988641262 3.252691269 -14.89569092
    vertex 5.785046577 3.535533905 -15.09203053
    vertex 8.329979897 4.599999905 -12.63778591
  endloop
endfacet
facet normal 0.6941649371 -9.219858067e-07 -0.7198159765
  outer loop
    vertex 10.67131805 3.252691269 -10.37988091
    vertex 8.329979897 4.599999905 -12.63778591
    vertex 10.87491226 3.535533905 -10.18354225
  endloop
endfacet
facet normal 0.2754616446 0.9238794929 0.2656455628
  outer loop
    vertex 3.159772873 3.691179276 -2.72462821
    vertex 10.87491226 3.535533905 -10.18354225
    vertex 8.329979897 5 -12.63778591
  endloop
endfacet
facet normal -0.2754615282 0.9238795445 -0.265645504
  outer loop
    vertex 5.785046577 3.535533905 -15.09203053
    vertex 3.061616999e-16 5 -4
    vertex 8.329979897 5 -12.63778591
  endloop
endfacet
facet normal 0.6941651419 0 -0.7198157791
  outer loop
    vertex 5.785046577 3.535533905 -15.09203053
    vertex 8.329979897 5 -12.63778591
    vertex 8.329979897 4.599999905 -12.63778591
  endloop
endfacet
facet normal 0.6941651369 0 -0.7198157839
  outer loop
    vertex 8.329979897 4.599999905 -12.63778591
    vertex 8.329979897 5 -12.63778591
    vertex 10.87491226 3.535533905 -10.18354225
  endloop
endfacet
facet normal -0.3826834327 0.9238795324 0
  outer loop
    vertex -3.535533905 3.535533905 -6
    vertex -3.535533905 3.535533905 0
    vertex 3.061616999e-16 5 0
  endloop
endfacet
facet normal 0 -0 -1
  outer loop
    vertex -3.535533905 3.535533905 -6
    vertex 3.061616999e-16 5 -6
    vertex -2.073908806 3.806583405 -6
  endloop
endfacet
facet normal 0 0 1
  outer loop
    vertex -3.535533905 3.535533905 0
    vertex -1.725637436 3.875845194 0
    vertex 3.061616999e-16 5 0
  endloop
endfacet
facet normal 0.3826834848 0.9238795108 1.009616469e-08
  outer loop
    vertex 3.159772873 3.691179276 -2.72462821
    vertex 1.546277881 4.359510899 -3.375879526
    vertex 3.535533905 3.535533905 0
  endloop
endfacet
facet normal 0.3826834327 0.9238795324 4.611882025e-08
  outer loop
    vertex 3.535533905 3.535533905 0
    vertex 1.546277881 4.359510899 -3.375879526
    vertex 3.061616999e-16 5 0
  endloop
endfacet
facet normal -0.3826834327 0.9238795324 -4.950131913e-07
  outer loop
    vertex -3.535533905 3.535533905 -6
    vertex -2.587067002e-06 5 -3.999997377
    vertex 3.061616999e-16 5 -6
  endloop
endfacet
facet normal -0.3826837912 0.9238793839 2.475073143e-07
  outer loop
    vertex -3.535533905 3.535533905 -6
    vertex 3.061616999e-16 5 0
    vertex -2.587067002e-06 5 -3.999997377
  endloop
endfacet
facet normal 0 0 -1
  outer loop
    vertex -2.073908806 3.806583405 -6
    vertex 3.061616999e-16 5 -6
    vertex 0.8072552681 4.665624142 -6
  endloop
endfacet
facet normal 0.3826828855 0.923879759 -2.475067286e-07
  outer loop
    vertex 1.546277881 4.359510899 -3.375879526
    vertex -2.587067002e-06 5 -3.999997377
    vertex 3.061616999e-16 5 0
  endloop
endfacet
facet normal 0.3826832155 0.9238796224 -0
  outer loop
    vertex 0.8072552681 4.665624142 -6
    vertex 3.061616999e-16 5 -6
    vertex 3.061616999e-16 5 -4
  endloop
endfacet
facet normal -0 1 -0
  outer loop
    vertex 3.061616999e-16 5 -6
    vertex -2.587067002e-06 5 -3.999997377
    vertex 3.061616999e-16 5 -4
  endloop
endfacet
facet normal 0 -1 0
  outer loop
    vertex 8.329979897 5 -12.63778591
    vertex 3.061616999e-16 5 -4
    vertex -2.587067002e-06 5 -3.999997377
  endloop
endfacet
facet normal 0.2754615877 0.9238795174 0.2656455364
  outer loop
    vertex 3.159772873 3.691179276 -2.72462821
    vertex 8.329979897 5 -12.63778591
    vertex 1.546277881 4.359510899 -3.375879526
  endloop
endfacet
facet normal 0.2754614868 0.9238795677 0.265645466
  outer loop
    vertex 8.329979897 5 -12.63778591
    vertex -2.587067002e-06 5 -3.999997377
    vertex 1.546277881 4.359510899 -3.375879526
  endloop
endfacet
facet normal -0.2754615672 0.9238795211 -0.2656455449
  outer loop
    vertex 14.52222061 2.969848394 -23.33714294
    vertex 16.65996361 4.199999809 -21.27557755
    vertex 22.85220337 2.969848394 -31.97493172
  endloop
endfacet
facet normal 0.6941655744 -7.061111396e-07 -0.7198153619
  outer loop
    vertex 14.52222061 2.969848394 -23.33714294
    vertex 14.31862545 3.252691269 -23.53348351
    vertex 16.65996361 4.599999905 -21.27557755
  endloop
endfacet
facet normal 0.2754615508 0.9238795468 0.2656454726
  outer loop
    vertex 10.67131805 3.252691269 -10.37988091
    vertex 19.00130272 3.252691269 -19.01767349
    vertex 16.65996361 4.599999905 -21.27557755
  endloop
endfacet
facet normal 0.6941647261 -6.288388144e-07 -0.71981618
  outer loop
    vertex 18.79770851 2.969848394 -19.21401215
    vertex 16.65996361 4.599999905 -21.27557755
    vertex 19.00130272 3.252691269 -19.01767349
  endloop
endfacet
facet normal 0.2754615976 0.9238795211 0.2656455134
  outer loop
    vertex 24.98994637 4.199999809 -29.91336632
    vertex 18.79770851 2.969848394 -19.21401215
    vertex 27.12768936 2.969848394 -27.85180092
  endloop
endfacet
facet normal -0.2754615053 0.9238795733 -0.2656454276
  outer loop
    vertex 14.31862545 3.252691269 -23.53348351
    vertex 8.329979897 4.599999905 -12.63778591
    vertex 16.65996361 4.599999905 -21.27557755
  endloop
endfacet
facet normal 0.6941652955 0 -0.719815631
  outer loop
    vertex 14.52222061 2.969848394 -23.33714294
    vertex 16.65996361 4.599999905 -21.27557755
    vertex 16.65996361 4.199999809 -21.27557755
  endloop
endfacet
facet normal 0.6941649745 0 -0.7198159404
  outer loop
    vertex 18.79770851 2.969848394 -19.21401215
    vertex 16.65996361 4.199999809 -21.27557755
    vertex 16.65996361 4.599999905 -21.27557755
  endloop
endfacet
facet normal 0.2754615531 0.9238795457 0.2656454737
  outer loop
    vertex 10.67131805 3.252691269 -10.37988091
    vertex 16.65996361 4.599999905 -21.27557755
    vertex 8.329979897 4.599999905 -12.63778591
  endloop
endfacet
facet normal 0.2754614586 0.9238795836 0.2656454401
  outer loop
    vertex 24.98994637 4.199999809 -29.91336632
    vertex 16.65996361 4.199999809 -21.27557755
    vertex 18.79770851 2.969848394 -19.21401215
  endloop
endfacet
facet normal 0.6941659262 4.959465233e-07 -0.7198150227
  outer loop
    vertex 27.72524643 4.653657775e-16 -27.2755394
    vertex 26.92409515 2.687005758 -28.04814148
    vertex 28.01317215 5.143516516e-16 -26.99787331
  endloop
endfacet
facet normal 0.6941668758 1.238763367e-06 -0.7198141069
  outer loop
    vertex 28.01317215 5.143516516e-16 -26.99787331
    vertex 26.92409515 2.687005758 -28.04814148
    vertex 27.12768936 2.969848394 -27.85180092
  endloop
endfacet
facet normal -0.6650230845 0.382683201 -0.6413250851
  outer loop
    vertex 22.2546463 0 -32.55119324
    vertex 23.05579758 2.687005758 -31.77859306
    vertex 87.99856567 0 -100.7244568
  endloop
endfacet
facet normal 0.6650229686 0.3826835896 0.6413249734
  outer loop
    vertex 27.72524643 4.653657775e-16 -27.2755394
    vertex 92.66801453 2.687005758 -96.22140503
    vertex 26.92409515 2.687005758 -28.04814148
  endloop
endfacet
facet normal -0.2754615176 0.9238795591 -0.2656454642
  outer loop
    vertex 23.05579758 2.687005758 -31.77859306
    vertex 24.98994637 3.799999952 -29.91336632
    vertex 88.79971313 2.687005758 -99.95185852
  endloop
endfacet
facet normal 0.2754616296 0.9238794924 0.26564558
  outer loop
    vertex 24.98994637 3.799999952 -29.91336632
    vertex 26.92409515 2.687005758 -28.04814148
    vertex 90.73386383 3.799999952 -98.08663177
  endloop
endfacet
facet normal 0.2754613936 -0.9238796282 0.2656453524
  outer loop
    vertex 24.98994637 -3.799999952 -29.91336632
    vertex 90.73386383 -3.799999952 -98.08663177
    vertex 92.66801453 -2.687005758 -96.22140503
  endloop
endfacet
facet normal -0.2754613974 -0.9238796282 -0.2656453484
  outer loop
    vertex 23.05579758 -2.687005758 -31.77859306
    vertex 88.79971313 -2.687005758 -99.95185852
    vertex 90.73386383 -3.799999952 -98.08663177
  endloop
endfacet
facet normal 0.6650234406 -0.3826820066 0.6413254285
  outer loop
    vertex 26.92409515 -2.687005758 -28.04814148
    vertex 92.66801453 -2.687005758 -96.22140503
    vertex 93.46916199 4.653657775e-16 -95.44880676
  endloop
endfacet
facet normal -0.6650234406 -0.3826820066 -0.6413254285
  outer loop
    vertex 22.2546463 0 -32.55119324
    vertex 87.99856567 0 -100.7244568
    vertex 88.79971313 -2.687005758 -99.95185852
  endloop
endfacet
facet normal -0.6941741117 -5.402627787e-06 0.7198071288
  outer loop
    vertex 88.59612274 -2.969848394 -100.148201
    vertex 88.79971313 -2.687005758 -99.95185852
    vertex 87.71063995 0 -101.0021286
  endloop
endfacet
facet normal -0.6941733381 -4.797475595e-06 0.7198078749
  outer loop
    vertex 88.79971313 -2.687005758 -99.95185852
    vertex 87.99856567 0 -100.7244568
    vertex 87.71063995 0 -101.0021286
  endloop
endfacet
facet normal 0.2754614823 -0.9238795881 0.2656454
  outer loop
    vertex 90.73386383 -4.199999809 -98.08663177
    vertex 99.06384277 -4.199999809 -106.7244186
    vertex 101.2015915 -2.969848394 -104.6628571
  endloop
endfacet
facet normal -0.2754611669 -0.9238797671 -0.2656451045
  outer loop
    vertex 99.06384277 -4.599999905 -106.7244186
    vertex 96.72250366 -3.252691269 -108.9823303
    vertex 107.3938293 -4.599999905 -115.3622131
  endloop
endfacet
facet normal -0.6941662819 0 0.7198146797
  outer loop
    vertex 99.06384277 -4.599999905 -106.7244186
    vertex 99.06384277 -4.199999809 -106.7244186
    vertex 96.92610168 -2.969848394 -108.7859879
  endloop
endfacet
facet normal -0.6941636672 0 0.7198172012
  outer loop
    vertex 99.06384277 -4.599999905 -106.7244186
    vertex 101.2015915 -2.969848394 -104.6628571
    vertex 99.06384277 -4.199999809 -106.7244186
  endloop
endfacet
facet normal -0.2754614978 -0.9238795791 -0.2656454149
  outer loop
    vertex 88.59612274 -2.969848394 -100.148201
    vertex 96.92610168 -2.969848394 -108.7859879
    vertex 99.06384277 -4.199999809 -106.7244186
  endloop
endfacet
facet normal -0.2754614325 -0.9238795468 -0.2656455953
  outer loop
    vertex 96.72250366 -3.252691269 -108.9823303
    vertex 105.0524902 -3.252691269 -117.6201172
    vertex 107.3938293 -4.599999905 -115.3622131
  endloop
endfacet
facet normal -0.6941656584 1.578081311e-06 0.719815281
  outer loop
    vertex 99.06384277 -4.599999905 -106.7244186
    vertex 96.92610168 -2.969848394 -108.7859879
    vertex 96.72250366 -3.252691269 -108.9823303
  endloop
endfacet
facet normal -0.6941687466 1.285594337e-05 0.7198123027
  outer loop
    vertex 99.06384277 -4.599999905 -106.7244186
    vertex 101.4051819 -3.252691269 -104.4665146
    vertex 101.2015915 -2.969848394 -104.6628571
  endloop
endfacet
facet normal 0.2754615497 -0.9238795468 0.2656454737
  outer loop
    vertex 99.06384277 -4.599999905 -106.7244186
    vertex 109.7351685 -3.252691269 -113.1043091
    vertex 101.4051819 -3.252691269 -104.4665146
  endloop
endfacet
facet normal -0.2754616993 -0.9238794498 -0.2656456559
  outer loop
    vertex 104.8488998 -3.535533905 -117.8164597
    vertex 112.1882782 -3.535533905 -125.4270401
    vertex 115.7238083 -5 -124
  endloop
endfacet
facet normal -0.3826823307 -0.9238799888 0
  outer loop
    vertex 115.7238083 -5 -124
    vertex 115.7238083 -5 -122
    vertex 114.9165497 -4.665623665 -122
  endloop
endfacet
facet normal -0.3826837851 -0.9238793864 0
  outer loop
    vertex 115.7238083 -5 -128
    vertex 115.7238083 -5 -124
    vertex 112.1882782 -3.535533905 -125.4270401
  endloop
endfacet
facet normal 0 -0 1
  outer loop
    vertex 115.7238083 -5 -122
    vertex 117.7977219 -3.806582212 -122
    vertex 114.9165497 -4.665623665 -122
  endloop
endfacet
facet normal 0.3826830802 -0.9238796784 0
  outer loop
    vertex 115.7238083 -5 -128
    vertex 119.259346 -3.535533905 -128
    vertex 115.7238083 -5 -124
  endloop
endfacet
facet normal 0.3826830802 -0.9238796784 0
  outer loop
    vertex 115.7238083 -5 -124
    vertex 119.259346 -3.535533905 -128
    vertex 115.7238083 -5 -122
  endloop
endfacet
facet normal 0 0 -1
  outer loop
    vertex 115.7238083 -5 -128
    vertex 112.1882782 -3.535533905 -128
    vertex 117.4494476 -3.875845194 -128
  endloop
endfacet
facet normal -0.3826837851 -0.9238793864 -0
  outer loop
    vertex 115.7238083 -5 -128
    vertex 112.1882782 -3.535533905 -125.4270401
    vertex 112.1882782 -3.535533905 -128
  endloop
endfacet
facet normal 0 0 -1
  outer loop
    vertex 115.7238083 -5 -128
    vertex 117.4494476 -3.875845194 -128
    vertex 119.259346 -3.535533905 -128
  endloop
endfacet
facet normal 0 -0 1
  outer loop
    vertex 115.7238083 -5 -122
    vertex 119.259346 -3.535533905 -122
    vertex 117.7977219 -3.806582212 -122
  endloop
endfacet
facet normal 0.3826830802 -0.9238796784 0
  outer loop
    vertex 115.7238083 -5 -122
    vertex 119.259346 -3.535533905 -128
    vertex 119.259346 -3.535533905 -122
  endloop
endfacet
facet normal -0.6941659605 0 0.7198149896
  outer loop
    vertex 104.8488998 -3.535533905 -117.8164597
    vertex 107.3938293 -5 -115.3622131
    vertex 107.3938293 -4.599999905 -115.3622131
  endloop
endfacet
facet normal -0.6941659605 0 0.7198149896
  outer loop
    vertex 107.3938293 -5 -115.3622131
    vertex 109.9387589 -3.535533905 -112.9079666
    vertex 107.3938293 -4.599999905 -115.3622131
  endloop
endfacet
facet normal 0.2754624892 -0.9238790087 0.265646371
  outer loop
    vertex 107.3938293 -5 -115.3622131
    vertex 115.7238083 -5 -124
    vertex 114.9165497 -4.665623665 -122
  endloop
endfacet
facet normal -0.2754616526 -0.92387949 -0.2656455643
  outer loop
    vertex 104.8488998 -3.535533905 -117.8164597
    vertex 115.7238083 -5 -124
    vertex 107.3938293 -5 -115.3622131
  endloop
endfacet
facet normal 0.2754615497 -0.9238795468 0.2656454737
  outer loop
    vertex 99.06384277 -4.599999905 -106.7244186
    vertex 107.3938293 -4.599999905 -115.3622131
    vertex 109.7351685 -3.252691269 -113.1043091
  endloop
endfacet
facet normal -0.6941687466 -1.285595103e-05 0.7198123027
  outer loop
    vertex 104.8488998 -3.535533905 -117.8164597
    vertex 107.3938293 -4.599999905 -115.3622131
    vertex 105.0524902 -3.252691269 -117.6201172
  endloop
endfacet
facet normal 0.2754616483 -0.92387949 0.2656455688
  outer loop
    vertex 107.3938293 -5 -115.3622131
    vertex 118.2687454 -3.535533905 -121.5457611
    vertex 109.9387589 -3.535533905 -112.9079666
  endloop
endfacet
facet normal -0.6941687466 1.285595103e-05 0.7198123027
  outer loop
    vertex 107.3938293 -4.599999905 -115.3622131
    vertex 109.9387589 -3.535533905 -112.9079666
    vertex 109.7351685 -3.252691269 -113.1043091
  endloop
endfacet
facet normal 0.2754611768 -0.9238798396 0.2656448418
  outer loop
    vertex 107.3938293 -5 -115.3622131
    vertex 114.9165497 -4.665623665 -122
    vertex 117.7977219 -3.806582212 -122
  endloop
endfacet
facet normal 0.2754619597 -0.9238792214 0.2656461801
  outer loop
    vertex 107.3938293 -5 -115.3622131
    vertex 117.7977219 -3.806582212 -122
    vertex 118.2687454 -3.535533905 -121.5457611
  endloop
endfacet
facet normal 0.694165346 0 -0.7198155822
  outer loop
    vertex 117.7977219 -3.806582212 -122
    vertex 117.7977219 -2.881165266 -122
    vertex 118.2687454 -3.535533905 -121.5457611
  endloop
endfacet
facet normal 0 -0 1
  outer loop
    vertex 117.7977219 -3.806582212 -122
    vertex 119.259346 -3.535533905 -122
    vertex 117.7977219 -2.881165266 -122
  endloop
endfacet
facet normal 0 0 -1
  outer loop
    vertex 112.1882782 -3.535533905 -128
    vertex 111.8479614 -1.725637436 -128
    vertex 117.4494476 -3.875845194 -128
  endloop
endfacet
facet normal -0.2754614978 -0.9238795791 -0.2656454149
  outer loop
    vertex 88.59612274 -2.969848394 -100.148201
    vertex 99.06384277 -4.199999809 -106.7244186
    vertex 90.73386383 -4.199999809 -98.08663177
  endloop
endfacet
facet normal -0.6941650484 0 0.7198158693
  outer loop
    vertex 88.79971313 -2.687005758 -99.95185852
    vertex 90.73386383 -4.199999809 -98.08663177
    vertex 90.73386383 -3.799999952 -98.08663177
  endloop
endfacet
facet normal -0.6941650484 0 0.7198158693
  outer loop
    vertex 90.73386383 -4.199999809 -98.08663177
    vertex 92.66801453 -2.687005758 -96.22140503
    vertex 90.73386383 -3.799999952 -98.08663177
  endloop
endfacet
facet normal -0.6941697142 -1.151180193e-05 0.7198113696
  outer loop
    vertex 88.59612274 -2.969848394 -100.148201
    vertex 90.73386383 -4.199999809 -98.08663177
    vertex 88.79971313 -2.687005758 -99.95185852
  endloop
endfacet
facet normal -0.6941646795 -9.100627368e-07 0.719816225
  outer loop
    vertex 90.73386383 -4.199999809 -98.08663177
    vertex 92.87160492 -2.969848394 -96.02507019
    vertex 92.66801453 -2.687005758 -96.22140503
  endloop
endfacet
facet normal 0.2754617955 -0.9238793379 0.2656459454
  outer loop
    vertex 90.73386383 -4.199999809 -98.08663177
    vertex 101.2015915 -2.969848394 -104.6628571
    vertex 92.87160492 -2.969848394 -96.02507019
  endloop
endfacet
facet normal -0.6650230967 -0.3826833745 -0.6413249689
  outer loop
    vertex 88.59612274 -2.969848394 -100.148201
    vertex 87.71063995 0 -101.0021286
    vertex 96.92610168 -2.969848394 -108.7859879
  endloop
endfacet
facet normal -0.6941644833 -5.43562255e-08 0.7198164141
  outer loop
    vertex 96.72250366 -3.252691269 -108.9823303
    vertex 96.92610168 -2.969848394 -108.7859879
    vertex 95.75269318 0 -109.9175797
  endloop
endfacet
facet normal -0.6650232533 -0.3826818651 -0.6413257072
  outer loop
    vertex 96.72250366 -3.252691269 -108.9823303
    vertex 95.75269318 0 -109.9175797
    vertex 105.0524902 -3.252691269 -117.6201172
  endloop
endfacet
facet normal -0.6941748731 -4.344751062e-06 0.7198063945
  outer loop
    vertex 104.8488998 -3.535533905 -117.8164597
    vertex 105.0524902 -3.252691269 -117.6201172
    vertex 104.0826797 0 -118.5553741
  endloop
endfacet
facet normal -0.694173185 6.689925984e-06 0.7198080224
  outer loop
    vertex 101.4051819 -3.252691269 -104.4665146
    vertex 102.375 5.633375257e-16 -103.5312653
    vertex 101.2015915 -2.969848394 -104.6628571
  endloop
endfacet
facet normal -0.6941634555 7.294000086e-07 0.7198174053
  outer loop
    vertex 96.92610168 -2.969848394 -108.7859879
    vertex 96.0406189 0 -109.6399155
    vertex 95.75269318 0 -109.9175797
  endloop
endfacet
facet normal -0.6650230967 -0.3826833745 -0.6413249689
  outer loop
    vertex 96.92610168 -2.969848394 -108.7859879
    vertex 87.71063995 0 -101.0021286
    vertex 96.0406189 0 -109.6399155
  endloop
endfacet
facet normal -0.6941634555 4.308957621e-07 0.7198174053
  outer loop
    vertex 104.8488998 -3.535533905 -117.8164597
    vertex 104.0826797 0 -118.5553741
    vertex 103.794754 0 -118.8330383
  endloop
endfacet
facet normal -0.6650231535 -0.3826831491 -0.6413250445
  outer loop
    vertex 105.0524902 -3.252691269 -117.6201172
    vertex 95.75269318 0 -109.9175797
    vertex 104.0826797 0 -118.5553741
  endloop
endfacet
facet normal -0.6941634555 -7.294000086e-07 0.7198174053
  outer loop
    vertex 101.2015915 -2.969848394 -104.6628571
    vertex 102.375 5.633375257e-16 -103.5312653
    vertex 102.0870743 5.143516516e-16 -103.8089294
  endloop
endfacet
facet normal 0.6650231498 -0.3826831965 0.64132502
  outer loop
    vertex 101.4051819 -3.252691269 -104.4665146
    vertex 110.7049789 5.633375257e-16 -112.1690521
    vertex 102.375 5.633375257e-16 -103.5312653
  endloop
endfacet
facet normal -0.92387918 -0.3826842835 0
  outer loop
    vertex 112.1882782 -3.535533905 -128
    vertex 112.1882782 -3.535533905 -125.4270401
    vertex 110.7238083 6.123233998e-16 -128
  endloop
endfacet
facet normal 0 0 -1
  outer loop
    vertex 112.1882782 -3.535533905 -128
    vertex 110.7238083 6.123233998e-16 -128
    vertex 111.8479614 -1.725637436 -128
  endloop
endfacet
facet normal 0.9238798848 -0.3826825818 0
  outer loop
    vertex 119.259346 -3.535533905 -128
    vertex 120.7238083 0 -128
    vertex 119.259346 -3.535533905 -122
  endloop
endfacet
facet normal -0 0 -1
  outer loop
    vertex 119.259346 -3.535533905 -128
    vertex 117.4494476 -3.875845194 -128
    vertex 119.5996552 1.725637436 -128
  endloop
endfacet
facet normal 0 0 1
  outer loop
    vertex 119.259346 -3.535533905 -122
    vertex 117.7977142 3.528402298e-16 -122
    vertex 117.7977219 -2.881165266 -122
  endloop
endfacet
facet normal 0.6941658022 6.338043263e-07 -0.7198151422
  outer loop
    vertex 118.2687454 -3.535533905 -121.5457611
    vertex 117.7977219 -2.881165266 -122
    vertex 119.3228912 6.123233998e-16 -120.5291748
  endloop
endfacet
facet normal -0.6650231446 -0.3826830254 -0.6413251275
  outer loop
    vertex 104.8488998 -3.535533905 -117.8164597
    vertex 103.794754 0 -118.8330383
    vertex 112.1882782 -3.535533905 -125.4270401
  endloop
endfacet
facet normal -0.6941748731 4.344751062e-06 0.7198063945
  outer loop
    vertex 109.9387589 -3.535533905 -112.9079666
    vertex 110.7049789 5.633375257e-16 -112.1690521
    vertex 109.7351685 -3.252691269 -113.1043091
  endloop
endfacet
facet normal 0.6650231535 -0.3826831491 0.6413250445
  outer loop
    vertex 101.4051819 -3.252691269 -104.4665146
    vertex 109.7351685 -3.252691269 -113.1043091
    vertex 110.7049789 5.633375257e-16 -112.1690521
  endloop
endfacet
facet normal 0.6650228382 -0.3826842067 0.6413247404
  outer loop
    vertex 109.9387589 -3.535533905 -112.9079666
    vertex 118.2687454 -3.535533905 -121.5457611
    vertex 119.3228912 6.123233998e-16 -120.5291748
  endloop
endfacet
facet normal -0.6650231336 -0.3826834424 -0.6413248901
  outer loop
    vertex 112.1882782 -3.535533905 -125.4270401
    vertex 103.794754 0 -118.8330383
    vertex 110.7238083 0 -126.0181351
  endloop
endfacet
facet normal -0.92387918 -0.3826842835 -1.182353742e-16
  outer loop
    vertex 112.1882782 -3.535533905 -125.4270401
    vertex 110.7238083 0 -126.0181351
    vertex 110.7238083 6.123233998e-16 -128
  endloop
endfacet
facet normal 0.6941646234 1.838164525e-06 -0.719816279
  outer loop
    vertex 117.7977219 -2.881165266 -122
    vertex 117.7977142 3.528402298e-16 -122
    vertex 119.3228912 6.123233998e-16 -120.5291748
  endloop
endfacet
facet normal 0.9238798848 -0.3826825818 0
  outer loop
    vertex 119.259346 -3.535533905 -122
    vertex 120.7238083 0 -128
    vertex 120.7238083 0 -122
  endloop
endfacet
facet normal 0 -0 1
  outer loop
    vertex 119.259346 -3.535533905 -122
    vertex 120.7238083 0 -122
    vertex 117.7977142 3.528402298e-16 -122
  endloop
endfacet
facet normal 0 0 -1
  outer loop
    vertex 119.259346 -3.535533905 -128
    vertex 119.5996552 1.725637436 -128
    vertex 120.7238083 0 -128
  endloop
endfacet
facet normal -0.6941634555 -4.308957621e-07 0.7198174053
  outer loop
    vertex 109.9387589 -3.535533905 -112.9079666
    vertex 110.9929047 6.123233998e-16 -111.8913879
    vertex 110.7049789 5.633375257e-16 -112.1690521
  endloop
endfacet
facet normal 0.6650229073 -0.3826830254 0.6413253736
  outer loop
    vertex 109.9387589 -3.535533905 -112.9079666
    vertex 119.3228912 6.123233998e-16 -120.5291748
    vertex 110.9929047 6.123233998e-16 -111.8913879
  endloop
endfacet
facet normal -0.694164229 -2.842958594e-07 0.7198166594
  outer loop
    vertex 92.87160492 -2.969848394 -96.02507019
    vertex 93.75708771 5.143516516e-16 -95.17114258
    vertex 92.66801453 -2.687005758 -96.22140503
  endloop
endfacet
facet normal 0.6650228032 -0.3826833745 0.6413252732
  outer loop
    vertex 92.87160492 -2.969848394 -96.02507019
    vertex 101.2015915 -2.969848394 -104.6628571
    vertex 102.0870743 5.143516516e-16 -103.8089294
  endloop
endfacet
facet normal 0.6650228032 -0.3826833745 0.6413252732
  outer loop
    vertex 92.87160492 -2.969848394 -96.02507019
    vertex 102.0870743 5.143516516e-16 -103.8089294
    vertex 93.75708771 5.143516516e-16 -95.17114258
  endloop
endfacet
facet normal -0.6941634555 -8.89363865e-07 0.7198174053
  outer loop
    vertex 92.66801453 -2.687005758 -96.22140503
    vertex 93.75708771 5.143516516e-16 -95.17114258
    vertex 93.46916199 4.653657775e-16 -95.44880676
  endloop
endfacet
facet normal 0.6650234771 0.3826820066 0.6413253907
  outer loop
    vertex 27.72524643 4.653657775e-16 -27.2755394
    vertex 93.46916199 4.653657775e-16 -95.44880676
    vertex 92.66801453 2.687005758 -96.22140503
  endloop
endfacet
facet normal -0.6650234682 0.3826820066 -0.6413253999
  outer loop
    vertex 23.05579758 2.687005758 -31.77859306
    vertex 88.79971313 2.687005758 -99.95185852
    vertex 87.99856567 0 -100.7244568
  endloop
endfacet
facet normal -0.6941733381 4.797475595e-06 0.7198078749
  outer loop
    vertex 87.71063995 0 -101.0021286
    vertex 87.99856567 0 -100.7244568
    vertex 88.79971313 2.687005758 -99.95185852
  endloop
endfacet
facet normal -0.6941741117 5.402627787e-06 0.7198071288
  outer loop
    vertex 87.71063995 0 -101.0021286
    vertex 88.79971313 2.687005758 -99.95185852
    vertex 88.59612274 2.969848394 -100.148201
  endloop
endfacet
facet normal 0.275461386 0.9238796282 0.2656453602
  outer loop
    vertex 26.92409515 2.687005758 -28.04814148
    vertex 92.66801453 2.687005758 -96.22140503
    vertex 90.73386383 3.799999952 -98.08663177
  endloop
endfacet
facet normal -0.2754613936 0.9238796282 -0.2656453524
  outer loop
    vertex 24.98994637 3.799999952 -29.91336632
    vertex 90.73386383 3.799999952 -98.08663177
    vertex 88.79971313 2.687005758 -99.95185852
  endloop
endfacet
facet normal -0.6650230967 0.3826833745 -0.6413249689
  outer loop
    vertex 87.71063995 0 -101.0021286
    vertex 88.59612274 2.969848394 -100.148201
    vertex 96.0406189 0 -109.6399155
  endloop
endfacet
facet normal -0.6941634555 -7.294000086e-07 0.7198174053
  outer loop
    vertex 95.75269318 0 -109.9175797
    vertex 96.0406189 0 -109.6399155
    vertex 96.92610168 2.969848394 -108.7859879
  endloop
endfacet
facet normal -0.6650235363 0.3826818651 -0.6413254137
  outer loop
    vertex 104.0826797 0 -118.5553741
    vertex 95.75269318 0 -109.9175797
    vertex 96.72250366 3.252691269 -108.9823303
  endloop
endfacet
facet normal -0.6941634555 -4.308957621e-07 0.7198174053
  outer loop
    vertex 103.794754 0 -118.8330383
    vertex 104.0826797 0 -118.5553741
    vertex 104.8488998 3.535533905 -117.8164597
  endloop
endfacet
facet normal -0.6941634555 7.294000086e-07 0.7198174053
  outer loop
    vertex 102.0870743 5.143516516e-16 -103.8089294
    vertex 102.375 5.633375257e-16 -103.5312653
    vertex 101.2015915 2.969848394 -104.6628571
  endloop
endfacet
facet normal -0.6941644833 5.43562255e-08 0.7198164141
  outer loop
    vertex 95.75269318 0 -109.9175797
    vertex 96.92610168 2.969848394 -108.7859879
    vertex 96.72250366 3.252691269 -108.9823303
  endloop
endfacet
facet normal -0.6650230967 0.3826833745 -0.6413249689
  outer loop
    vertex 88.59612274 2.969848394 -100.148201
    vertex 96.92610168 2.969848394 -108.7859879
    vertex 96.0406189 0 -109.6399155
  endloop
endfacet
facet normal -0.6650228704 0.3826831491 -0.641325338
  outer loop
    vertex 104.0826797 0 -118.5553741
    vertex 96.72250366 3.252691269 -108.9823303
    vertex 105.0524902 3.252691269 -117.6201172
  endloop
endfacet
facet normal -0.6941748731 4.344751062e-06 0.7198063945
  outer loop
    vertex 104.0826797 0 -118.5553741
    vertex 105.0524902 3.252691269 -117.6201172
    vertex 104.8488998 3.535533905 -117.8164597
  endloop
endfacet
facet normal 0.6650231393 0.3826831965 0.6413250309
  outer loop
    vertex 102.375 5.633375257e-16 -103.5312653
    vertex 109.7351685 3.252691269 -113.1043091
    vertex 101.4051819 3.252691269 -104.4665146
  endloop
endfacet
facet normal -0.694173185 -6.689925984e-06 0.7198080224
  outer loop
    vertex 102.375 5.633375257e-16 -103.5312653
    vertex 101.4051819 3.252691269 -104.4665146
    vertex 101.2015915 2.969848394 -104.6628571
  endloop
endfacet
facet normal 0 -0 -1
  outer loop
    vertex 110.7238083 6.123233998e-16 -128
    vertex 112.1882782 3.535533905 -128
    vertex 111.8479614 -1.725637436 -128
  endloop
endfacet
facet normal -0.92387918 0.3826842835 1.182353742e-16
  outer loop
    vertex 110.7238083 6.123233998e-16 -128
    vertex 110.7238083 0 -126.0181351
    vertex 112.1882782 3.535533905 -128
  endloop
endfacet
facet normal 0.9238798848 0.3826825818 0
  outer loop
    vertex 120.7238083 0 -128
    vertex 119.259346 3.535533905 -128
    vertex 120.7238083 0 -122
  endloop
endfacet
facet normal 0.6941646234 -1.838164525e-06 -0.719816279
  outer loop
    vertex 117.7977142 3.528402298e-16 -122
    vertex 117.7977219 2.881165266 -122
    vertex 119.3228912 6.123233998e-16 -120.5291748
  endloop
endfacet
facet normal -0 -0 1
  outer loop
    vertex 117.7977142 3.528402298e-16 -122
    vertex 120.7238083 0 -122
    vertex 117.7977219 2.881165266 -122
  endloop
endfacet
facet normal -0.665023258 0.3826830254 -0.64132501
  outer loop
    vertex 103.794754 0 -118.8330383
    vertex 104.8488998 3.535533905 -117.8164597
    vertex 110.7238083 0 -126.0181351
  endloop
endfacet
facet normal -0.6941634555 4.308957621e-07 0.7198174053
  outer loop
    vertex 110.7049789 5.633375257e-16 -112.1690521
    vertex 110.9929047 6.123233998e-16 -111.8913879
    vertex 109.9387589 3.535533905 -112.9079666
  endloop
endfacet
facet normal 0.6650231639 0.3826831491 0.6413250337
  outer loop
    vertex 102.375 5.633375257e-16 -103.5312653
    vertex 110.7049789 5.633375257e-16 -112.1690521
    vertex 109.7351685 3.252691269 -113.1043091
  endloop
endfacet
facet normal 0.6650225551 0.3826842067 0.6413250339
  outer loop
    vertex 110.9929047 6.123233998e-16 -111.8913879
    vertex 119.3228912 6.123233998e-16 -120.5291748
    vertex 118.2687454 3.535533905 -121.5457611
  endloop
endfacet
facet normal 0 -0 -1
  outer loop
    vertex 112.1882782 3.535533905 -128
    vertex 113.9981689 3.875845194 -128
    vertex 111.8479614 -1.725637436 -128
  endloop
endfacet
facet normal -0.92387918 0.3826842835 0
  outer loop
    vertex 110.7238083 0 -126.0181351
    vertex 112.1882782 3.535533905 -125.4270401
    vertex 112.1882782 3.535533905 -128
  endloop
endfacet
facet normal -0.6650230272 0.3826834191 -0.6413250144
  outer loop
    vertex 110.7238083 0 -126.0181351
    vertex 104.8488998 3.535533905 -117.8164597
    vertex 112.1882782 3.535533905 -125.4270401
  endloop
endfacet
facet normal 0 0 -1
  outer loop
    vertex 120.7238083 0 -128
    vertex 119.5996552 1.725637436 -128
    vertex 119.259346 3.535533905 -128
  endloop
endfacet
facet normal 0.6941658022 -6.338043263e-07 -0.7198151422
  outer loop
    vertex 119.3228912 6.123233998e-16 -120.5291748
    vertex 117.7977219 2.881165266 -122
    vertex 118.2687454 3.535533905 -121.5457611
  endloop
endfacet
facet normal 0 0 1
  outer loop
    vertex 120.7238083 0 -122
    vertex 119.259346 3.535533905 -122
    vertex 117.7977219 2.881165266 -122
  endloop
endfacet
facet normal 0.9238798848 0.3826825818 -0
  outer loop
    vertex 120.7238083 0 -122
    vertex 119.259346 3.535533905 -128
    vertex 119.259346 3.535533905 -122
  endloop
endfacet
facet normal -0.6941748731 -4.344751062e-06 0.7198063945
  outer loop
    vertex 110.7049789 5.633375257e-16 -112.1690521
    vertex 109.9387589 3.535533905 -112.9079666
    vertex 109.7351685 3.252691269 -113.1043091
  endloop
endfacet
facet normal 0.6650231904 0.3826830254 0.6413250801
  outer loop
    vertex 110.9929047 6.123233998e-16 -111.8913879
    vertex 118.2687454 3.535533905 -121.5457611
    vertex 109.9387589 3.535533905 -112.9079666
  endloop
endfacet
facet normal -0.6941634555 8.89363865e-07 0.7198174053
  outer loop
    vertex 93.46916199 4.653657775e-16 -95.44880676
    vertex 93.75708771 5.143516516e-16 -95.17114258
    vertex 92.66801453 2.687005758 -96.22140503
  endloop
endfacet
facet normal 0.6650228032 0.3826833745 0.6413252732
  outer loop
    vertex 93.75708771 5.143516516e-16 -95.17114258
    vertex 102.0870743 5.143516516e-16 -103.8089294
    vertex 101.2015915 2.969848394 -104.6628571
  endloop
endfacet
facet normal -0.694164229 2.842958594e-07 0.7198166594
  outer loop
    vertex 93.75708771 5.143516516e-16 -95.17114258
    vertex 92.87160492 2.969848394 -96.02507019
    vertex 92.66801453 2.687005758 -96.22140503
  endloop
endfacet
facet normal 0.6650228032 0.3826833745 0.6413252732
  outer loop
    vertex 93.75708771 5.143516516e-16 -95.17114258
    vertex 101.2015915 2.969848394 -104.6628571
    vertex 92.87160492 2.969848394 -96.02507019
  endloop
endfacet
facet normal -0.2754614978 0.9238795791 -0.2656454149
  outer loop
    vertex 88.59612274 2.969848394 -100.148201
    vertex 90.73386383 4.199999809 -98.08663177
    vertex 96.92610168 2.969848394 -108.7859879
  endloop
endfacet
facet normal 0.2754613607 0.9238795881 0.2656455261
  outer loop
    vertex 92.87160492 2.969848394 -96.02507019
    vertex 101.2015915 2.969848394 -104.6628571
    vertex 99.06384277 4.199999809 -106.7244186
  endloop
endfacet
facet normal -0.6941656584 -1.578081311e-06 0.719815281
  outer loop
    vertex 96.92610168 2.969848394 -108.7859879
    vertex 99.06384277 4.599999905 -106.7244186
    vertex 96.72250366 3.252691269 -108.9823303
  endloop
endfacet
facet normal -0.2754610497 0.9238797671 -0.2656452261
  outer loop
    vertex 96.72250366 3.252691269 -108.9823303
    vertex 99.06384277 4.599999905 -106.7244186
    vertex 105.0524902 3.252691269 -117.6201172
  endloop
endfacet
facet normal -0.6941687466 -1.285594337e-05 0.7198123027
  outer loop
    vertex 101.2015915 2.969848394 -104.6628571
    vertex 101.4051819 3.252691269 -104.4665146
    vertex 99.06384277 4.599999905 -106.7244186
  endloop
endfacet
facet normal -0.2754614978 0.9238795791 -0.2656454149
  outer loop
    vertex 96.92610168 2.969848394 -108.7859879
    vertex 90.73386383 4.199999809 -98.08663177
    vertex 99.06384277 4.199999809 -106.7244186
  endloop
endfacet
facet normal -0.2754615497 0.9238795468 -0.2656454737
  outer loop
    vertex 99.06384277 4.599999905 -106.7244186
    vertex 107.3938293 4.599999905 -115.3622131
    vertex 105.0524902 3.252691269 -117.6201172
  endloop
endfacet
facet normal -0.6941662819 0 0.7198146797
  outer loop
    vertex 96.92610168 2.969848394 -108.7859879
    vertex 99.06384277 4.199999809 -106.7244186
    vertex 99.06384277 4.599999905 -106.7244186
  endloop
endfacet
facet normal -0.6941636672 0 0.7198172012
  outer loop
    vertex 101.2015915 2.969848394 -104.6628571
    vertex 99.06384277 4.599999905 -106.7244186
    vertex 99.06384277 4.199999809 -106.7244186
  endloop
endfacet
facet normal 0.2754615497 0.9238795468 0.2656454737
  outer loop
    vertex 101.4051819 3.252691269 -104.4665146
    vertex 107.3938293 4.599999905 -115.3622131
    vertex 99.06384277 4.599999905 -106.7244186
  endloop
endfacet
facet normal -0 -0 -1
  outer loop
    vertex 119.259346 3.535533905 -128
    vertex 119.5996552 1.725637436 -128
    vertex 113.9981689 3.875845194 -128
  endloop
endfacet
facet normal 0.694165346 0 -0.7198155822
  outer loop
    vertex 117.7977219 2.881165266 -122
    vertex 117.7977219 3.806582212 -122
    vertex 118.2687454 3.535533905 -121.5457611
  endloop
endfacet
facet normal 0 -0 1
  outer loop
    vertex 117.7977219 2.881165266 -122
    vertex 119.259346 3.535533905 -122
    vertex 117.7977219 3.806582212 -122
  endloop
endfacet
facet normal 0.2754615497 0.9238795468 0.2656454737
  outer loop
    vertex 101.4051819 3.252691269 -104.4665146
    vertex 109.7351685 3.252691269 -113.1043091
    vertex 107.3938293 4.599999905 -115.3622131
  endloop
endfacet
facet normal 0.2754621151 0.9238792214 0.265646019
  outer loop
    vertex 109.9387589 3.535533905 -112.9079666
    vertex 118.2687454 3.535533905 -121.5457611
    vertex 117.7977219 3.806582212 -122
  endloop
endfacet
facet normal -0.2754617143 0.9238794546 -0.2656456237
  outer loop
    vertex 112.1882782 3.535533905 -125.4270401
    vertex 107.3938293 5 -115.3622131
    vertex 115.7238083 5 -124
  endloop
endfacet
facet normal -0.3826837851 0.9238793864 0
  outer loop
    vertex 112.1882782 3.535533905 -128
    vertex 112.1882782 3.535533905 -125.4270401
    vertex 115.7238083 5 -128
  endloop
endfacet
facet normal 0 -0 -1
  outer loop
    vertex 112.1882782 3.535533905 -128
    vertex 115.7238083 5 -128
    vertex 113.9981689 3.875845194 -128
  endloop
endfacet
facet normal 0 0 -1
  outer loop
    vertex 119.259346 3.535533905 -128
    vertex 113.9981689 3.875845194 -128
    vertex 115.7238083 5 -128
  endloop
endfacet
facet normal 0.3826830802 0.9238796784 0
  outer loop
    vertex 119.259346 3.535533905 -128
    vertex 115.7238083 5 -128
    vertex 119.259346 3.535533905 -122
  endloop
endfacet
facet normal 0 0 1
  outer loop
    vertex 119.259346 3.535533905 -122
    vertex 115.7238083 5 -122
    vertex 117.7977219 3.806582212 -122
  endloop
endfacet
facet normal -0.3826837851 0.9238793864 0
  outer loop
    vertex 112.1882782 3.535533905 -125.4270401
    vertex 115.7238083 5 -124
    vertex 115.7238083 5 -128
  endloop
endfacet
facet normal 0 0 1
  outer loop
    vertex 117.7977219 3.806582212 -122
    vertex 115.7238083 5 -122
    vertex 114.9165497 4.665623665 -122
  endloop
endfacet
facet normal -0.3826823307 0.9238799888 0
  outer loop
    vertex 114.9165497 4.665623665 -122
    vertex 115.7238083 5 -122
    vertex 115.7238083 5 -124
  endloop
endfacet
facet normal 0.3826830802 0.9238796784 -0
  outer loop
    vertex 119.259346 3.535533905 -122
    vertex 115.7238083 5 -128
    vertex 115.7238083 5 -124
  endloop
endfacet
facet normal 0.3826830802 0.9238796784 -0
  outer loop
    vertex 119.259346 3.535533905 -122
    vertex 115.7238083 5 -124
    vertex 115.7238083 5 -122
  endloop
endfacet
facet normal -0.6941687466 1.285595103e-05 0.7198123027
  outer loop
    vertex 104.8488998 3.535533905 -117.8164597
    vertex 105.0524902 3.252691269 -117.6201172
    vertex 107.3938293 4.599999905 -115.3622131
  endloop
endfacet
facet normal -0.2754616293 0.92387949 -0.2656455884
  outer loop
    vertex 104.8488998 3.535533905 -117.8164597
    vertex 107.3938293 5 -115.3622131
    vertex 112.1882782 3.535533905 -125.4270401
  endloop
endfacet
facet normal -0.6941687466 -1.285595103e-05 0.7198123027
  outer loop
    vertex 109.7351685 3.252691269 -113.1043091
    vertex 109.9387589 3.535533905 -112.9079666
    vertex 107.3938293 4.599999905 -115.3622131
  endloop
endfacet
facet normal -0.6941659605 0 0.7198149896
  outer loop
    vertex 104.8488998 3.535533905 -117.8164597
    vertex 107.3938293 4.599999905 -115.3622131
    vertex 107.3938293 5 -115.3622131
  endloop
endfacet
facet normal -0.6941659605 0 0.7198149896
  outer loop
    vertex 109.9387589 3.535533905 -112.9079666
    vertex 107.3938293 5 -115.3622131
    vertex 107.3938293 4.599999905 -115.3622131
  endloop
endfacet
facet normal 0.2754616526 0.92387949 0.2656455643
  outer loop
    vertex 109.9387589 3.535533905 -112.9079666
    vertex 115.7238083 5 -124
    vertex 107.3938293 5 -115.3622131
  endloop
endfacet
facet normal 0.2754611487 0.9238797453 0.2656451992
  outer loop
    vertex 109.9387589 3.535533905 -112.9079666
    vertex 117.7977219 3.806582212 -122
    vertex 114.9165497 4.665623665 -122
  endloop
endfacet
facet normal 0.2754657816 0.9238777074 0.2656474824
  outer loop
    vertex 109.9387589 3.535533905 -112.9079666
    vertex 114.9165497 4.665623665 -122
    vertex 115.7238083 5 -124
  endloop
endfacet
facet normal -0.6941697142 1.151180193e-05 0.7198113696
  outer loop
    vertex 88.79971313 2.687005758 -99.95185852
    vertex 90.73386383 4.199999809 -98.08663177
    vertex 88.59612274 2.969848394 -100.148201
  endloop
endfacet
facet normal -0.6941646795 9.100627368e-07 0.719816225
  outer loop
    vertex 92.66801453 2.687005758 -96.22140503
    vertex 92.87160492 2.969848394 -96.02507019
    vertex 90.73386383 4.199999809 -98.08663177
  endloop
endfacet
facet normal -0.6941650484 0 0.7198158693
  outer loop
    vertex 88.79971313 2.687005758 -99.95185852
    vertex 90.73386383 3.799999952 -98.08663177
    vertex 90.73386383 4.199999809 -98.08663177
  endloop
endfacet
facet normal -0.6941650484 0 0.7198158693
  outer loop
    vertex 92.66801453 2.687005758 -96.22140503
    vertex 90.73386383 4.199999809 -98.08663177
    vertex 90.73386383 3.799999952 -98.08663177
  endloop
endfacet
facet normal 0.2754619171 0.9238793379 0.2656458193
  outer loop
    vertex 92.87160492 2.969848394 -96.02507019
    vertex 99.06384277 4.199999809 -106.7244186
    vertex 90.73386383 4.199999809 -98.08663177
  endloop
endfacet
facet normal -0.358367755 -0.9335805012 0
  outer loop
    vertex 111.8479614 -1.725637436 -140
    vertex 117.4494476 -3.875845194 -140
    vertex 117.4494476 -3.875845194 -128
  endloop
endfacet
facet normal -0.358367755 -0.9335805012 0
  outer loop
    vertex 111.8479614 -1.725637436 -140
    vertex 117.4494476 -3.875845194 -128
    vertex 111.8479614 -1.725637436 -128
  endloop
endfacet
facet normal 0.9335804379 -0.3583679198 0
  outer loop
    vertex 117.4494476 -3.875845194 -140
    vertex 119.5996552 1.725637436 -128
    vertex 117.4494476 -3.875845194 -128
  endloop
endfacet
facet normal 0 0 -1
  outer loop
    vertex 111.8479614 -1.725637436 -140
    vertex 113.9981689 3.875845194 -140
    vertex 117.4494476 -3.875845194 -140
  endloop
endfacet
facet normal 0.9335804379 -0.3583679198 0
  outer loop
    vertex 117.4494476 -3.875845194 -140
    vertex 119.5996552 1.725637436 -140
    vertex 119.5996552 1.725637436 -128
  endloop
endfacet
facet normal -0.9335804379 0.3583679198 0
  outer loop
    vertex 111.8479614 -1.725637436 -140
    vertex 111.8479614 -1.725637436 -128
    vertex 113.9981689 3.875845194 -140
  endloop
endfacet
facet normal 0 -0 -1
  outer loop
    vertex 113.9981689 3.875845194 -140
    vertex 119.5996552 1.725637436 -140
    vertex 117.4494476 -3.875845194 -140
  endloop
endfacet
facet normal -0.9335804379 0.3583679198 0
  outer loop
    vertex 113.9981689 3.875845194 -140
    vertex 111.8479614 -1.725637436 -128
    vertex 113.9981689 3.875845194 -128
  endloop
endfacet
facet normal 0.358367755 0.9335805012 0
  outer loop
    vertex 119.5996552 1.725637436 -140
    vertex 113.9981689 3.875845194 -128
    vertex 119.5996552 1.725637436 -128
  endloop
endfacet
facet normal 0.358367755 0.9335805012 -0
  outer loop
    vertex 113.9981689 3.875845194 -140
    vertex 113.9981689 3.875845194 -128
    vertex 119.5996552 1.725637436 -140
  endloop
endfacet
endsolid seavolt
